<svg width="10" height="11" viewBox="0 0 10 11" fill="none" xmlns="http://www.w3.org/2000/svg">
<path fill-rule="evenodd" clip-rule="evenodd" d="M0.00330426 3.20107C0.004049 2.75899 0.09706 2.32216 0.276541 1.91943C0.456022 1.51669 0.717877 1.15726 1.0444 0.864984C1.30363 0.612232 1.66899 0.154353 2.06669 0.213575C2.48313 0.260107 2.79535 0.73262 3.00357 1.0594C3.35963 1.63364 3.94783 2.46721 3.40542 3.11019C3.15139 3.4137 2.74853 3.57535 2.51429 3.89896C2.42481 4.07364 2.38339 4.26961 2.39457 4.4662C2.40575 4.66278 2.46914 4.85283 2.57783 5.01588C2.9925 5.79328 3.55607 6.47862 4.2353 7.03156C4.37326 7.17848 4.53926 7.2954 4.72306 7.3752C4.90686 7.45501 5.10447 7.49601 5.30435 7.49578C5.71142 7.42704 6.03321 6.97327 6.33096 6.71734C7.09513 6.08916 7.94147 6.94995 8.50262 7.45757C8.65769 7.56607 8.78791 7.70745 8.88439 7.8717C8.98087 8.03595 9.04145 8.21936 9.0618 8.40951C9.04723 8.81032 8.54124 9.13499 8.26014 9.36764C7.89647 9.669 7.46988 9.88198 7.01291 9.99065C6.55593 10.0993 6.08066 10.1008 5.62309 9.99478C4.62895 9.7257 3.72045 9.19948 2.98603 8.4676C2.21379 7.7521 1.53594 6.93805 0.969419 6.04579C0.70015 5.63399 0.476541 5.19321 0.302975 4.73136C0.14371 4.23679 0.0420145 3.72483 0 3.20624C0.00728767 2.69121 0.0353973 3.48437 0 3.20624" fill="white"/>
</svg>
