<svg width="9" height="13" viewBox="0 0 9 13" fill="none" xmlns="http://www.w3.org/2000/svg">
<path d="M8.4129 4.57511C8.41207 3.44178 7.96842 2.35508 7.17939 1.55379C6.39037 0.7525 5.32051 0.302135 4.2048 0.301575C3.08954 0.302695 2.02039 0.753305 1.23198 1.55456C0.443572 2.35582 0.000551151 3.44224 0 4.57511C0.00119979 5.42249 0.252754 6.24982 0.722362 6.95018V6.9618L4.2048 12.2761L7.70299 6.95018C8.16801 6.24812 8.41637 5.42129 8.4162 4.57511H8.4129ZM4.2081 6.95018C3.58783 6.94963 2.99309 6.69934 2.55419 6.25411C2.1153 5.80888 1.86803 5.20518 1.86665 4.57511C1.8672 3.94459 2.11391 3.34005 2.55292 2.8943C2.99193 2.44855 3.58738 2.19799 4.2081 2.19771C4.51556 2.19729 4.81993 2.2586 5.10406 2.37793C5.3882 2.49725 5.64638 2.67217 5.86379 2.89301C6.0812 3.11385 6.25365 3.37612 6.37112 3.66474C6.48859 3.95336 6.54869 4.26279 6.54828 4.57511C6.54828 4.88721 6.48774 5.19613 6.3701 5.48445C6.25246 5.77276 6.08012 6.03481 5.86277 6.2554C5.64542 6.47599 5.38749 6.65098 5.10356 6.77023C4.81962 6.88947 4.51535 6.95046 4.2081 6.95018" fill="white"/>
</svg>
